<svg width="32" height="32" viewBox="0 0 32 32" fill="none" xmlns="http://www.w3.org/2000/svg">
<g clip-path="url(#clip0_430_1115)">
<path d="M23.3438 31.85C23.7813 31.6437 25.0688 30.3312 25.2563 29.9062C25.4438 29.4875 25.4438 28.8875 25.2563 28.4687C25.1438 28.2062 24.1313 27.1687 19.0438 22.075L12.9688 16L19.0688 9.8875C25.8313 3.125 25.4063 3.6 25.4063 2.75C25.4 2.125 25.2375 1.84375 24.4188 1.025C23.5688 0.175 23.2625 0 22.5938 0C22.2625 0 22.0813 0.0375 21.8438 0.15C21.5938 0.26875 20.1188 1.7125 14.15 7.69375C8.08126 13.775 6.75001 15.1375 6.68126 15.3437C6.54376 15.7437 6.57501 16.4187 6.73751 16.7812C6.85626 17.0437 8.11251 18.325 14.175 24.3875C22.275 32.4875 21.7313 32 22.5938 32C22.925 32 23.1063 31.9625 23.3438 31.85Z" fill="white"/>
</g>
<defs>
<clipPath id="clip0_430_1115">
<rect width="32" height="32" fill="white" transform="translate(32 32) rotate(-180)"/>
</clipPath>
</defs>
</svg>
