<svg width="32" height="32" viewBox="0 0 32 32" fill="none" xmlns="http://www.w3.org/2000/svg">
<g clip-path="url(#clip0_430_1112)">
<path d="M8.65625 0.150002C8.21875 0.356252 6.93125 1.66875 6.74375 2.09375C6.55625 2.5125 6.55625 3.1125 6.74375 3.53125C6.85625 3.79375 7.86875 4.83125 12.9563 9.925L19.0313 16L12.9313 22.1125C6.16875 28.875 6.59375 28.4 6.59375 29.25C6.6 29.875 6.7625 30.1563 7.58125 30.975C8.43125 31.825 8.7375 32 9.40625 32C9.7375 32 9.91875 31.9625 10.1563 31.85C10.4063 31.7313 11.8813 30.2875 17.85 24.3063C23.9188 18.225 25.25 16.8625 25.3188 16.6563C25.4563 16.2563 25.425 15.5813 25.2625 15.2188C25.1438 14.9563 23.8875 13.675 17.825 7.6125C9.725 -0.487498 10.2688 1.90735e-06 9.40625 1.90735e-06C9.075 1.90735e-06 8.89375 0.0375019 8.65625 0.150002Z" fill="white"/>
</g>
<defs>
<clipPath id="clip0_430_1112">
<rect width="32" height="32" fill="white"/>
</clipPath>
</defs>
</svg>
